inDegrees=no
num_controls=7
num_derivatives=13
num_iterations=181
num_multipliers=7
num_parameters=0
num_slacks=7
num_states=26
objective=0.454993
objective_accelerations=0.002955
objective_balance=0.012263
objective_effort=0.016960
objective_height=0.216228
objective_ligament=0.206587
solver_duration=2194.977252
status=Solve_Succeeded
success=true
DataType=double
version=3
OpenSimVersion=4.5
endheader
time	/jointset/ground_pelvis/pelvis_tilt/value	/jointset/ground_pelvis/pelvis_tx/value	/jointset/ground_pelvis/pelvis_ty/value	/jointset/hip_l/hip_flexion_l/value	/jointset/hip_l/hip_adduction_l/value	/jointset/hip_l/hip_rotation_l/value	/jointset/back/lumbar_extension/value	/jointset/patellofemoral_l/patellar_flexion_l/value	/jointset/knee_l/knee_flexion_l/value	/jointset/knee_l/knee_adduction_l/value	/jointset/knee_l/knee_rotation_l/value	/jointset/ankle_l/ankle_angle_l/value	/jointset/subtalar_l/subtalar_angle_l/value	/jointset/ground_pelvis/pelvis_tilt/speed	/jointset/ground_pelvis/pelvis_tx/speed	/jointset/ground_pelvis/pelvis_ty/speed	/jointset/hip_l/hip_flexion_l/speed	/jointset/hip_l/hip_adduction_l/speed	/jointset/hip_l/hip_rotation_l/speed	/jointset/back/lumbar_extension/speed	/jointset/patellofemoral_l/patellar_flexion_l/speed	/jointset/knee_l/knee_flexion_l/speed	/jointset/knee_l/knee_adduction_l/speed	/jointset/knee_l/knee_rotation_l/speed	/jointset/ankle_l/ankle_angle_l/speed	/jointset/subtalar_l/subtalar_angle_l/speed	/forceset/tau_hip_flexion_l	/forceset/tau_hip_adduction_l	/forceset/tau_hip_rotation_l	/forceset/tau_knee_flexion_l	/forceset/tau_ankle_angle_l	/forceset/tau_subtalar_angle_l	/forceset/tau_lumbar_extension	lambda_cid13_p0	lambda_cid13_p1	lambda_cid13_p2	lambda_cid13_p3	lambda_cid13_p4	lambda_cid13_p5	lambda_cid14_p0	/jointset/ground_pelvis/pelvis_tilt/accel	/jointset/ground_pelvis/pelvis_tx/accel	/jointset/ground_pelvis/pelvis_ty/accel	/jointset/hip_l/hip_flexion_l/accel	/jointset/hip_l/hip_adduction_l/accel	/jointset/hip_l/hip_rotation_l/accel	/jointset/back/lumbar_extension/accel	/jointset/patellofemoral_l/patellar_flexion_l/accel	/jointset/knee_l/knee_flexion_l/accel	/jointset/knee_l/knee_adduction_l/accel	/jointset/knee_l/knee_rotation_l/accel	/jointset/ankle_l/ankle_angle_l/accel	/jointset/subtalar_l/subtalar_angle_l/accel	gamma_cid13_p0	gamma_cid13_p1	gamma_cid13_p2	gamma_cid13_p3	gamma_cid13_p4	gamma_cid13_p5	gamma_cid14_p0
0	-0.03209530153813309	0.05439651423850263	0.9211782893146101	0.3085816938045678	-0.2869524397304876	-0.3056475989121821	-0.3879492264334186	0.2499269421184602	0.2499269421184919	-0.156379185296432	-0.1745328048294593	-0.0008036623358878681	0.009489375283195557	0	0	0	0	0	0	0	0	0	0	0	0	0	-0.08033543634501646	-0.1490972227966452	-0.009576932168353813	-0.1751794530036214	0.1502420190443411	0.1651925058268211	0.1687703181153828	7.667460615661354	-73.99881848093851	12.38621827588273	-51.21438920462718	-732.8853553855979	-216.1492992668204	-23.12435586435617	2.410441916218004	1.452847093868636	0.5615816810372616	-2.624061837176332	3.49600263488605	-1.263556485910365	0.882459529130218	1.648632251024261	1.648632251024238	7.914428659801095	0.02933892446128457	4.116625194865543	5.093619502523851	1.588935582862153e-07	1.211672849485889e-06	-7.769493781254429e-07	-3.325052452274242e-08	5.454562361607574e-07	1.842355047117389e-06	8.999647771135014e-08
0.01	-0.031979204205329	0.05446567051269215	0.9212050294948513	0.3084570423258723	-0.286785503844331	-0.305706045005773	-0.3879147963965615	0.2500079752511138	0.2500079752511763	-0.1560006117954949	-0.1745302217833539	-0.0006060186388354627	0.009732963228606192	0.02286085040775721	0.01349352216879151	0.005217668299230247	-0.02432922810253103	0.03265180429543632	-0.01144973043679379	0.005847021035345503	0.01614953281035876	0.01614953281035964	0.07416707062258135	0.0004254349897112693	0.03878212538403206	0.04770157245722349	-0.06567220741762642	-0.2154279819497366	-0.01015222041755625	-0.1874820214325877	0.1387145986033245	0.2194601560278916	0.1549305171112442	6.385971255088329	-96.72858227502147	15.30828921928123	-48.64201180210511	-726.4927777858185	-266.1933937234475	-23.12363645014751	2.170091326240762	1.246938227847357	0.4824133332460484	-2.247206201600201	3.039553422219014	-1.049613918730337	0.2799754390951587	1.589531737582336	1.589531737581961	6.935741349073155	0.03532542558677488	3.647038543311614	4.455922991031048	6.717397958961411e-08	8.513521789771665e-07	-5.815856607100151e-07	-1.741143436666107e-08	3.982309546301365e-07	1.33782560748258e-06	4.239488732835114e-08
0.02	-0.03164526142378245	0.05465962869845972	0.9212800571438601	0.3081071279851817	-0.2863140930961621	-0.3058717749229623	-0.3878530657396601	0.25024878730022	0.250248787300219	-0.154926788571196	-0.1745261484593317	-4.294722133141157e-05	0.01042306627333172	0.04356908974291042	0.02496038231561061	0.0096574937535441	-0.0450525723974548	0.06089497240478664	-0.02145676472021751	0.00546012400501624	0.03195578328234371	0.03195578328234511	0.1390499446686397	0.0002980555538690743	0.07308554409364698	0.08930301986283508	-0.05100897849037613	-0.2817587411029311	-0.01072750866711053	-0.1997845898615915	0.1271871781622675	0.2737278062288462	0.1410907161070943	5.159367683985908	-119.4903671568596	18.26106392576405	-46.33446866179936	-719.8989700838082	-316.2756995404019	-23.12214728814264	1.979919701697016	1.047514689474127	0.4060131120539754	-1.902885075654619	2.614275397669004	-0.9750172552353645	-0.3643240840050741	1.579975783349321	1.579975783349226	6.057589344496654	-0.08122396064833773	3.220883859982061	3.873594492201607	-2.454559910698705e-08	4.910315084684439e-07	-3.862219432945872e-07	-1.572344210579709e-09	2.510056730995155e-07	8.332961678477719e-07	-5.206703054647862e-09
0.03	-0.03111239182382312	0.05496144698433083	0.9213964110967738	0.3075606689340921	-0.2855796486678779	-0.3061332275759845	-0.387812706328426	0.2506445539365559	0.2506445539365502	-0.1532451336316871	-0.1745266791757237	0.0008456357893212434	0.01150337776656283	0.06290395203802429	0.03539622115320758	0.01356689152862994	-0.06441029477752191	0.08547729596909304	-0.03062181647719858	0.002936865740886391	0.04692867255013634	0.04692867255014522	0.1961247756427154	-0.0003142179191069147	0.104331084714231	0.1261411655989851	-0.0545774029403169	-0.2546847586389229	-0.01025810566144844	-0.1933384224861697	0.1256538283682482	0.250471912081089	0.1436916963242637	3.805394115332016	-109.4984409723522	17.06235547954192	-43.95281172632585	-719.237012488534	-294.5770635416513	-23.12045943397154	1.895112803635062	1.040560174344233	0.3764919214214452	-1.977895148217749	2.302774534081328	-0.8553852636663903	-0.1475605737813846	1.415616016555809	1.41561601655644	5.358997898603886	-0.03780256751913319	3.03138279635063	3.496178351501739	3.0387546240951e-08	4.442968200655716e-07	-3.221994749551768e-07	-9.929506149780824e-09	2.0499125612877e-07	7.0161954200128e-07	2.114764489093607e-08
0.04	-0.03038920493882982	0.05536741199726378	0.9215504767896744	0.3068154967934107	-0.2846148682643092	-0.3064799579721242	-0.3877878262750505	0.2511819835691759	0.2511819835691551	-0.1510274167974844	-0.1745306473322495	0.002037672932822877	0.01293352146459238	0.08163254674174243	0.04578972772797749	0.01719984175092619	-0.08479519031904914	0.1069621674642286	-0.03851231334364327	0.002364252430170334	0.06028838254039272	0.06028838254041208	0.2462623236064501	-0.0003894324679479372	0.1337763706649761	0.1592694608223483	-0.05814582739030467	-0.2276107761749598	-0.009788702655737015	-0.1868922551107787	0.1241204785742147	0.2272160179332795	0.1462926765414408	2.473944984602146	-99.51274541558814	15.86725286656492	-41.73549407486723	-718.4371639229208	-272.8742189191374	-23.11866571302475	1.858666183417771	1.039048236908612	0.3507236014960512	-2.108319707946372	1.994784983835002	-0.7201062771270136	0.02580490667739092	1.257339927841892	1.2573399278424	4.670132742428659	0.02618782417980694	2.860832926014133	3.131624389644367	8.834445909496208e-08	4.040278220153974e-07	-2.608850736070246e-07	-1.878555988476097e-08	1.610636611077127e-07	5.776306030370214e-07	4.902685754432585e-08
0.05	-0.02948248042352562	0.05587541351946928	0.9217391421725409	0.3058647207138968	-0.2834507581125668	-0.3068992013383527	-0.3877649376969373	0.2518455847223068	0.2518455847222896	-0.1483428209168192	-0.1745328164410158	0.003513087600135584	0.01467571795813169	0.09952658670983087	0.05563173346851644	0.02045270647880224	-0.1051457444774933	0.1253633894535134	-0.04521044416479989	0.001944619582663509	0.07227609815730597	0.07227609815729868	0.2895898801988193	-6.5646543289399e-05	0.1608199782097401	0.1885110201391421	-0.0552584759007	-0.2241684197043471	-0.009602934203601554	-0.1853659840778008	0.1180318432517007	0.2232928732792449	0.1426624092708083	0.5476135719258448	-97.62324269112702	15.73918476054561	-38.07779000478031	-715.2050365368497	-269.205374585102	-23.1167279283111	1.726906038891829	0.9299464267827444	0.3005205146242138	-1.96627947930766	1.688342563744572	-0.6257314478207172	-0.1161739228075893	1.146114858847568	1.146114858842703	4.004036780120399	0.03223726625999204	2.553153107704109	2.721564749051836	6.875205907664426e-08	2.734150356752717e-07	-1.714980828977752e-07	-1.56470186147378e-08	1.015567226611769e-07	3.817907489103133e-07	3.731794908678705e-08
0.06	-0.02840238888143004	0.05647646903590903	0.9219579267239232	0.304716867850905	-0.282117525389488	-0.3073816390054336	-0.3877543107557536	0.2526243885276299	0.2526243885276327	-0.1452569555377331	-0.1745323950337266	0.005244344030687507	0.01669055865411066	0.1163059520933799	0.06440052657482982	0.0232236754540669	-0.1242105470165582	0.1407866817336037	-0.05115117351439271	-8.807495856305971e-05	0.08332891298348202	0.08332891298344523	0.3265162232903844	0.000128670967409781	0.1849447233143647	0.213798301310143	-0.05237112441115943	-0.220726063233778	-0.009417165751272622	-0.1838397130448825	0.1119432079291669	0.2193697286251553	0.1390321420001755	-1.359030172294014	-95.74917958150023	15.62727606769412	-34.5796453829183	-711.9245560351	-265.565731115792	-23.11481557880832	1.635731266509867	0.8244057100633231	0.2543444509737603	-1.851169384070238	1.399199041996234	-0.568625982813731	-0.2968074320668116	1.070359769694386	1.070359769694319	3.38989004226798	0.0002941413884796629	2.277060437986061	2.340768760485832	4.589442483212311e-08	1.389983003545167e-07	-8.092908842595344e-08	-1.20034417655566e-08	4.139381185988417e-08	1.829255930925547e-07	2.394217237194598e-08
0.07000000000000001	-0.02715949157273156	0.0571608912336013	0.9222022636723546	0.3033828969564482	-0.2806441671150929	-0.3079204231726812	-0.3877693637688789	0.2535089320694182	0.2535089320693741	-0.1418321903023987	-0.17453093266734	0.00720390044641863	0.0189398953521644	0.1321354956083712	0.07240765131810832	0.02558864676016015	-0.142545512747564	0.1534719826968514	-0.05652249801159144	-0.002912330260461078	0.09340639625216879	0.09340639625215701	0.3575380769280554	0.0001459550567251087	0.2066404720402417	0.2355513832128984	-0.05144806318827258	-0.2131153412673195	-0.009217271797154354	-0.1819331240880335	0.108295412607052	0.2120950146848175	0.1378061982446572	-2.663629597925997	-92.55046027884629	15.33332757631269	-32.39653574371606	-710.1567618032007	-258.9075062652134	-23.11317438906171	1.5358654054149	0.7774242524463232	0.219320899077021	-1.81893981242274	1.141251288021908	-0.5088975218761368	-0.2737049690744418	0.9504281114646151	0.9504281114678994	2.823527369056824	-0.0002456144029331494	2.066927621396137	2.014917088763233	4.910570856135102e-08	6.378521187013286e-08	-2.056110371911299e-08	-1.230560539889316e-08	3.587824067706085e-09	5.572598799555656e-08	2.441420072833215e-08
0.08	-0.02576243892656911	0.05792309635792129	0.9224685998195754	0.301866720475728	-0.2790563446981673	-0.3085104229526405	-0.3878123534129753	0.2544890475450678	0.2544890475450042	-0.1381241676617818	-0.17452983569157	0.00937063345570242	0.02139123070596491	0.1471370195801796	0.0799571119003768	0.0276235152119899	-0.1606516642708989	0.1636795102414434	-0.06139429605693324	-0.005675401155286787	0.1024432997612095	0.1024432997612231	0.3831677043473538	5.559286178994342e-05	0.2263800420264199	0.2541980324593754	-0.05052500196544629	-0.2055046193009032	-0.009017377842799866	-0.1800265351312428	0.1046476172849189	0.2048203007444255	0.1365802544891375	-3.959894905374005	-89.35939004357893	15.04766843273964	-30.33826398818271	-708.3780409227946	-252.2801450314088	-23.11199144716112	1.470127357873317	0.732872877861079	0.1883238801210378	-1.805406542535774	0.9036443582651108	-0.4687206924425774	-0.2845705506525673	0.862243817765256	0.8622438177652592	2.311444798593543	-0.02123511546189383	1.885824690046006	1.719482229230078	5.399885796630468e-08	-7.608286495775243e-09	3.785842874482534e-08	-1.286233293432764e-08	-3.277578159485163e-08	-6.685003318397292e-08	2.577963586350716e-08
